<?xml version="1.0" encoding="utf-8"?>
<svg version="1.1" xmlns:xlink="http://www.w3.org/1999/xlink" width="35px" height="35px" xmlns="http://www.w3.org/2000/svg">
  <g transform="matrix(1 0 0 1 -345 -779 )">
    <path d="M 33.8221153846154 12.5488342785129  C 34.6073717948718 12.6811594202899  35 13.0193236714976  35 13.5633270321361  C 35 13.8867884898131  34.8177083333333 14.2396555345516  34.453125 14.6219281663516  L 26.8179086538462 22.4291115311909  L 28.6268028846154 33.4562066792691  C 28.6408253205128 33.5591262339845  28.6478365384615 33.7061541692922  28.6478365384615 33.8972904851922  C 28.6478365384615 34.2060491493384  28.57421875 34.4670237345096  28.4269831730769 34.6802142407057  C 28.2797475961538 34.8934047469019  28.065905448718 35  27.7854567307692 35  C 27.519030448718 35  27.2385817307692 34.9117832388154  26.9441105769231 34.7353497164461  L 17.5 29.5305608065532  L 8.05588942307692 34.7353497164461  C 7.74739583333333 34.9117832388154  7.46694711538462 35  7.21454326923077 35  C 6.92007211538462 35  6.69921875 34.8934047469019  6.55198317307692 34.6802142407057  C 6.40474759615385 34.4670237345096  6.33112980769231 34.2060491493384  6.33112980769231 33.8972904851922  C 6.33112980769231 33.8090737240076  6.34515224358974 33.6620457886998  6.37319711538462 33.4562066792691  L 8.18209134615385 22.4291115311909  L 0.525841346153846 14.6219281663516  C 0.175280448717949 14.2249527410208  0 13.8720856962823  0 13.5633270321361  C 0 13.0193236714976  0.392628205128205 12.6811594202899  1.17788461538462 12.5488342785129  L 11.7367788461538 10.9388783868935  L 16.4693509615385 0.904221802142405  C 16.7357772435897 0.3014072673808  17.0793269230769 0  17.5 0  C 17.9206730769231 0  18.2642227564103 0.3014072673808  18.5306490384615 0.904221802142405  L 23.2632211538462 10.9388783868935  L 33.8221153846154 12.5488342785129  Z " fill-rule="nonzero" fill="#000000" stroke="none" transform="matrix(1 0 0 1 345 779 )" />
  </g>
</svg>