<?xml version="1.0" encoding="utf-8"?>
<svg version="1.1" xmlns:xlink="http://www.w3.org/1999/xlink" width="31px" height="33px" xmlns="http://www.w3.org/2000/svg">
  <g transform="matrix(1 0 0 1 -462 -779 )">
    <path d="M 23.8244755244755 16.5  L 29.5909090909091 19.80859375  C 30.255710955711 20.1809895833333  30.6856643356643 20.7360026041667  30.8807692307692 21.4736328125  C 31.0758741258741 22.2112630208333  30.9855477855478 22.9095052083333  30.6097902097902 23.568359375  L 29.2223776223776 25.931640625  C 28.8466200466201 26.5904947916667  28.2865967365967 27.0166015625  27.5423076923077 27.2099609375  C 26.7980186480187 27.4033203125  26.0934731934732 27.3138020833333  25.4286713286713 26.94140625  L 19.6622377622378 23.654296875  L 19.6622377622378 30.25  C 19.6622377622378 30.9947916666667  19.3876456876457 31.6393229166667  18.8384615384615 32.18359375  C 18.2892773892774 32.7278645833333  17.6389277389277 33  16.8874125874126 33  L 14.1125874125874 33  C 13.3610722610723 33  12.7107226107226 32.7278645833333  12.1615384615385 32.18359375  C 11.6123543123543 31.6393229166667  11.3377622377622 30.9947916666667  11.3377622377622 30.25  L 11.3377622377622 23.654296875  L 5.57132867132867 26.94140625  C 4.90652680652681 27.3138020833333  4.20198135198135 27.4033203125  3.45769230769231 27.2099609375  C 2.71340326340326 27.0166015625  2.15337995337995 26.5904947916667  1.77762237762238 25.931640625  L 0.39020979020979 23.568359375  C 0.0144522144522146 22.9095052083333  -0.0758741258741259 22.2112630208333  0.119230769230769 21.4736328125  C 0.314335664335664 20.7360026041667  0.744289044289045 20.1809895833333  1.40909090909091 19.80859375  L 7.17552447552448 16.5  L 1.40909090909091 13.19140625  C 0.744289044289045 12.8190104166667  0.314335664335664 12.2639973958333  0.119230769230769 11.5263671875  C -0.0758741258741259 10.7887369791667  0.0144522144522146 10.0904947916667  0.39020979020979 9.431640625  L 1.77762237762238 7.068359375  C 2.15337995337995 6.40950520833333  2.71340326340326 5.9833984375  3.45769230769231 5.7900390625  C 4.20198135198135 5.5966796875  4.90652680652681 5.68619791666666  5.57132867132867 6.05859375  L 11.3377622377622 9.345703125  L 11.3377622377622 2.75  C 11.3377622377622 2.00520833333333  11.6123543123543 1.36067708333333  12.1615384615385 0.816406250000001  C 12.7107226107226 0.272135416666663  13.3610722610723 0  14.1125874125874 0  L 16.8874125874126 0  C 17.6389277389277 0  18.2892773892774 0.272135416666663  18.8384615384615 0.816406250000001  C 19.3876456876457 1.36067708333333  19.6622377622378 2.00520833333333  19.6622377622378 2.75  L 19.6622377622378 9.345703125  L 25.4286713286713 6.05859375  C 26.0934731934732 5.68619791666666  26.7980186480187 5.5966796875  27.5423076923077 5.7900390625  C 28.2865967365967 5.9833984375  28.8466200466201 6.40950520833333  29.2223776223776 7.068359375  L 30.6097902097902 9.431640625  C 30.9855477855478 10.0904947916667  31.0758741258741 10.7887369791667  30.8807692307692 11.5263671875  C 30.6856643356643 12.2639973958333  30.255710955711 12.8190104166667  29.5909090909091 13.19140625  L 23.8244755244755 16.5  Z " fill-rule="nonzero" fill="#000000" stroke="none" transform="matrix(1 0 0 1 462 779 )" />
  </g>
</svg>