<?xml version="1.0" encoding="utf-8"?>
<svg version="1.1" xmlns:xlink="http://www.w3.org/1999/xlink" width="10px" height="8px" xmlns="http://www.w3.org/2000/svg">
  <g transform="matrix(1 0 0 1 -603 -535 )">
    <path d="M 9.814453125 0.263888888888889  C 9.93815104166669 0.439814814814817  10 0.648148148148145  10 0.888888888888889  C 10 1.12962962962963  9.93815104166669 1.33796296296296  9.814453125 1.51388888888889  L 5.439453125 7.73611111111111  C 5.31575520833331 7.91203703703704  5.16927083333331 8  5 8  C 4.83072916666669 8  4.68424479166669 7.91203703703704  4.560546875 7.73611111111111  L 0.185546875 1.51388888888889  C 0.0618489583333144 1.33796296296296  0 1.12962962962963  0 0.888888888888889  C 0 0.648148148148145  0.0618489583333144 0.439814814814817  0.185546875 0.263888888888889  C 0.309244791666686 0.0879629629629584  0.455729166666686 0  0.625 0  L 9.375 0  C 9.54427083333331 0  9.69075520833331 0.0879629629629584  9.814453125 0.263888888888889  Z " fill-rule="nonzero" fill="#000000" stroke="none" transform="matrix(1 0 0 1 603 535 )" />
  </g>
</svg>