<?xml version="1.0" encoding="utf-8"?>
<svg version="1.1" xmlns:xlink="http://www.w3.org/1999/xlink" width="12px" height="12px" viewBox="344 1008  12 12" xmlns="http://www.w3.org/2000/svg">
  <path d="M 350 1008  C 353.36 1008  356 1010.64  356 1014  C 356 1017.36  353.36 1020  350 1020  C 346.64 1020  344 1017.36  344 1014  C 344 1010.64  346.64 1008  350 1008  Z " fill-rule="nonzero" fill="#f0f0f0" stroke="none" />
  <path d="M 350 1008.5  C 353.08 1008.5  355.5 1010.92  355.5 1014  C 355.5 1017.08  353.08 1019.5  350 1019.5  C 346.92 1019.5  344.5 1017.08  344.5 1014  C 344.5 1010.92  346.92 1008.5  350 1008.5  Z " stroke-width="1" stroke="#797979" fill="none" />
  <path d="M 350 1017  C 348.32 1017  347 1015.68  347 1014  C 347 1012.32  348.32 1011  350 1011  C 351.68 1011  353 1012.32  353 1014  C 353 1015.68  351.68 1017  350 1017  " fill-rule="nonzero" fill="#797979" stroke="none" />
</svg>