<?xml version="1.0" encoding="utf-8"?>
<svg version="1.1" xmlns:xlink="http://www.w3.org/1999/xlink" width="12px" height="12px" viewBox="310 864  12 12" xmlns="http://www.w3.org/2000/svg">
  <path d="M 316 864  C 319.36 864  322 866.64  322 870  C 322 873.36  319.36 876  316 876  C 312.64 876  310 873.36  310 870  C 310 866.64  312.64 864  316 864  Z " fill-rule="nonzero" fill="#ffffff" stroke="none" />
  <path d="M 316 864.5  C 319.08 864.5  321.5 866.92  321.5 870  C 321.5 873.08  319.08 875.5  316 875.5  C 312.92 875.5  310.5 873.08  310.5 870  C 310.5 866.92  312.92 864.5  316 864.5  Z " stroke-width="1" stroke="#797979" fill="none" />
  <path d="M 316 873  C 314.32 873  313 871.68  313 870  C 313 868.32  314.32 867  316 867  C 317.68 867  319 868.32  319 870  C 319 871.68  317.68 873  316 873  " fill-rule="nonzero" fill="#797979" stroke="none" />
</svg>