<?xml version="1.0" encoding="utf-8"?>
<svg version="1.1" xmlns:xlink="http://www.w3.org/1999/xlink" width="12px" height="12px" viewBox="310 741  12 12" xmlns="http://www.w3.org/2000/svg">
  <path d="M 316 741  C 319.36 741  322 743.64  322 747  C 322 750.36  319.36 753  316 753  C 312.64 753  310 750.36  310 747  C 310 743.64  312.64 741  316 741  Z " fill-rule="nonzero" fill="#f0f0f0" stroke="none" />
  <path d="M 316 741.5  C 319.08 741.5  321.5 743.92  321.5 747  C 321.5 750.08  319.08 752.5  316 752.5  C 312.92 752.5  310.5 750.08  310.5 747  C 310.5 743.92  312.92 741.5  316 741.5  Z " stroke-width="1" stroke="#797979" fill="none" />
  <path d="M 316 750  C 314.32 750  313 748.68  313 747  C 313 745.32  314.32 744  316 744  C 317.68 744  319 745.32  319 747  C 319 748.68  317.68 750  316 750  " fill-rule="nonzero" fill="#797979" stroke="none" />
</svg>