<?xml version="1.0" encoding="utf-8"?>
<svg version="1.1" xmlns:xlink="http://www.w3.org/1999/xlink" width="20px" height="29px" xmlns="http://www.w3.org/2000/svg">
  <g transform="matrix(1 0 0 1 -581 -130 )">
    <path d="M 19.2100694444442 6.39080822676061  C 19.7366898148144 7.67803484832035  19.9999999999998 9.02871630333819  19.9999999999997 10.4428525918127  C 19.9999999999999 13.1139989144871  19.1464120370366 15.4376544825144  17.439236111111 17.4138192958957  C 15.7320601851851 19.3899841092769  13.6226851851849 20.523106135298  11.111111111111 20.8131853739596  L 11.2909954085624 28.4198415226771  C 11.2909954085624 28.5890544118963  11.2389120752291 28.7280507137552  11.1347454085623 28.8368304282529  C 11.0305787418956 28.9456101427512  10.8974768900439 29.0000000000003  10.7354398530068 29.0000000000002  L 9.62432874189578 29.0000000000002  C 9.46229170485868 29  9.32918985300683 28.9456101427511  9.2250231863402 28.836830428253  C 9.12085651967354 28.7280507137552  9.06877318634008 28.5890544118965  9.06877318634007 28.419841522677  L 8.8888888888888 20.8131853739597  C 6.37731481481465 20.5231061352979  4.26793981481464 19.3899841092766  2.56076388888888 17.4138192958958  C 0.85358796296285 15.4376544825145  0 13.113998914487  0 10.4428525918126  C 0 9.02871630333832  0.263310185184909 7.67803484832054  0.789930555555127 6.39080822676005  C 1.31655092592575 5.10358160520026  2.02835648148135 3.99161119033137  2.92534722222201 3.05489698215363  C 3.82233796296281 2.11818277397613  4.88715277777749 1.37485472490594  6.11979166666639 0.824912834943812  C 7.35243055555533 0.274970944981347  8.64583333333298 0  9.99999999999971 0  C 11.3541666666664 0  12.6475694444443 0.274970944981688  13.8802083333331 0.824912834943685  C 15.1128472222218 1.37485472490605  16.1776620370368 2.11818277397621  17.0746527777773 3.05489698215344  C 17.9716435185182 3.99161119033104  18.6834490740737 5.10358160520021  19.2100694444442 6.39080822676061  Z M 4.50520833333325 16.1809825315847  C 6.02719907407387 17.7703750267503  7.8587962962962 18.5650712743333  9.99999999999968 18.5650712743332  C 12.1412037037039 18.5650712743336  13.9728009259257 17.7703750267502  15.4947916666664 16.1809825315846  C 17.0167824074071 14.5915900364184  17.7777777777774 12.6788800564944  17.7777777777774 10.4428525918126  C 17.7777777777776 8.20682512713065  17.0167824074071 6.29411514720643  15.4947916666664 4.7047226520406  C 13.9728009259256 3.11533015687476  12.1412037037032 2.32063390929175  9.9999999999999 2.32063390929208  C 7.85879629629604 2.32063390929178  6.02719907407385 3.11533015687453  4.5052083333329 4.70472265204027  C 2.98321759259247 6.29411514720664  2.22222222222215 8.20682512713064  2.22222222222202 10.4428525918125  C 2.22222222222221 12.6788800564948  2.98321759259249 14.5915900364186  4.50520833333325 16.1809825315847  Z " fill-rule="nonzero" fill="#333333" stroke="none" transform="matrix(1 0 0 1 581 130 )" />
  </g>
</svg>