<?xml version="1.0" encoding="utf-8"?>
<svg version="1.1" xmlns:xlink="http://www.w3.org/1999/xlink" width="26px" height="20px" xmlns="http://www.w3.org/2000/svg">
  <g transform="matrix(1 0 0 1 -621 -132 )">
    <path d="M 24.0050223214284 18.046875  C 24.0969122023809 17.9569128787879  24.1428571428573 17.8503787878788  24 17.7272727272727  L 24 6.81818181818184  C 23.8333333333332 7.15909090909089  23.4996279761905 7.47159090909089  23.1417410714284 7.75568181818184  C 20.5494791666668 9.70643939393941  18.4892113095239 11.3068181818182  16.9609375 12.5568181818182  C 16.4676339285716 12.9640151515151  16.0662202380952 13.28125  15.7566964285716 13.5085227272727  C 15.4471726190475 13.7357954545455  15.0288318452379 13.9654356060606  14.5016741071427 14.1974431818182  C 13.9745163690475 14.4294507575757  13.4787946428573 14.5454545454545  13.0145089285716 14.5454545454545  L 13 14.5454545454545  L 12.9854910714284 14.5454545454545  C 12.5212053571427 14.5454545454545  12.0254836309525 14.4294507575757  11.4983258928573 14.1974431818182  C 10.9711681547621 13.9654356060606  10.5528273809525 13.7357954545455  10.2433035714284 13.5085227272727  C 9.93377976190478 13.28125  9.53236607142838 12.9640151515151  9.0390625 12.5568181818182  C 7.51078869047613 11.3068181818182  5.45052083333315 9.70643939393941  2.85825892857162 7.75568181818184  C 2.50037202380955 7.47159090909089  2.16666666666685 7.15909090909089  2 6.81818181818184  L 2 17.7272727272727  C 1.8571428571427 17.8503787878788  1.9030877976191 17.9569128787879  1.99497767857162 18.046875  C 2.08686755952387 18.1368371212121  2.19568452380955 18.1818181818182  2.32142857142838 18  L 23.6785714285716 18  C 23.8043154761905 18.1818181818182  23.9131324404761 18.1368371212121  24.0050223214284 18.046875  Z M 23.4681919642857 4.66619318181816  C 23.91796875 3.97964015151515  24.1428571428573 3.35700757575757  24.1428571428573 2.79829545454551  L 24.1428571428573 2.64204545454551  L 24.1428571428573 2.45028409090912  C 24.1428571428573 2.45028409090912  24.1404389880952 2.38873106060603  24.1356026785716 2.265625  C 24.1307663690475 2.14251893939397  24.1162574404761 2.08333333333331  24.0920758928573 2.08806818181816  C 24.0678943452379 2.09280303030308  24.0412946428573 2.05018939393941  24.0122767857143 1.96022727272728  C 23.9832589285716 1.87026515151515  23.9397321428573 1.83475378787882  23.8816964285716 1.85369318181816  C 23.8236607142857 1.87263257575757  23.7559523809525 1.86079545454551  23.6785714285716 2  L 2.32142857142838 2  C 2.19568452380955 1.81818181818184  2.08686755952387 1.86316287878787  1.99497767857162 1.953125  C 1.9030877976191 2.04308712121213  1.8571428571427 2.14962121212118  1.8571428571427 2.27272727272728  C 1.8571428571427 3.86363636363639  2.5680803571427 5.20833333333331  3.9899553571427 6.30681818181816  C 5.85677083333315 7.74621212121213  7.7961309523809 9.24715909090911  9.80803571428568 10.8096590909091  C 9.86607142857162 10.8570075757576  10.0353422619048 10.9966856060606  10.3158482142857 11.2286931818182  C 10.5963541666668 11.4607007575757  10.8188244047621 11.6382575757576  10.9832589285716 11.7613636363636  C 11.1476934523809 11.8844696969697  11.3629092261904 12.0336174242424  11.62890625 12.2088068181818  C 11.8949032738096 12.3839962121212  12.1391369047621 12.5142045454545  12.3616071428573 12.5994318181818  C 12.5840773809525 12.6846590909091  12.7920386904761 12.7272727272727  12.9854910714284 12.7272727272727  L 13 12.7272727272727  L 13.0145089285716 12.7272727272727  C 13.2079613095239 12.7272727272727  13.4159226190475 12.6846590909091  13.6383928571427 12.5994318181818  C 13.8608630952379 12.5142045454545  14.1050967261904 12.3839962121212  14.37109375 12.2088068181818  C 14.6370907738096 12.0336174242424  14.8523065476191 11.8844696969697  15.0167410714284 11.7613636363636  C 15.1811755952379 11.6382575757576  15.4036458333332 11.4607007575757  15.6841517857143 11.2286931818182  C 15.9646577380952 10.9966856060606  16.1339285714284 10.8570075757576  16.1919642857143 10.8096590909091  C 18.2038690476191 9.24715909090911  20.1432291666668 7.74621212121213  22.0100446428573 6.30681818181816  C 22.5323660714284 5.89962121212118  23.0184151785716 5.35274621212118  23.4681919642857 4.66619318181816  Z M 25.3180803571427 0.667613636363606  C 25.7726934523809 1.11268939393941  26 1.64772727272728  26 2.27272727272728  L 26 17.7272727272727  C 26 18.3522727272727  25.7726934523809 18.8873106060606  25.3180803571427 19.3323863636364  C 24.8634672619048 19.7774621212121  24.3169642857143 20  23.6785714285716 20  L 2.32142857142838 20  C 1.68303571428568 20  1.13653273809523 19.7774621212121  0.681919642857296 19.3323863636364  C 0.227306547619099 18.8873106060606  0 18.3522727272727  0 17.7272727272727  L 0 2.27272727272728  C 0 1.64772727272728  0.227306547619099 1.11268939393941  0.681919642857296 0.667613636363606  C 1.13653273809523 0.222537878787869  1.68303571428568 0  2.32142857142838 0  L 23.6785714285716 0  C 24.3169642857143 0  24.8634672619048 0.222537878787869  25.3180803571427 0.667613636363606  Z " fill-rule="nonzero" fill="#333333" stroke="none" transform="matrix(1 0 0 1 621 132 )" />
  </g>
</svg>