<?xml version="1.0" encoding="utf-8"?>
<svg version="1.1" xmlns:xlink="http://www.w3.org/1999/xlink" width="86px" height="35px" xmlns="http://www.w3.org/2000/svg">
  <g transform="matrix(1 0 0 1 -386 -452 )">
    <path d="M 387 457  A 4 4 0 0 1 391 453 L 467 453  A 4 4 0 0 1 471 457 L 471 482  A 4 4 0 0 1 467 486 L 391 486  A 4 4 0 0 1 387 482 L 387 457  Z " fill-rule="nonzero" fill="#ffffff" stroke="none" />
    <path d="M 386.5 457  A 4.5 4.5 0 0 1 391 452.5 L 467 452.5  A 4.5 4.5 0 0 1 471.5 457 L 471.5 482  A 4.5 4.5 0 0 1 467 486.5 L 391 486.5  A 4.5 4.5 0 0 1 386.5 482 L 386.5 457  Z " stroke-width="1" stroke="#797979" fill="none" stroke-opacity="0.592156862745098" />
  </g>
</svg>