<?xml version="1.0" encoding="utf-8"?>
<svg version="1.1" xmlns:xlink="http://www.w3.org/1999/xlink" width="23px" height="23px" xmlns="http://www.w3.org/2000/svg">
  <g transform="matrix(1 0 0 1 -362 -377 )">
    <path d="M 373.5 377  C 379.94 377  385 382.06  385 388.5  C 385 394.94  379.94 400  373.5 400  C 367.06 400  362 394.94  362 388.5  C 362 382.06  367.06 377  373.5 377  Z " fill-rule="nonzero" fill="#ffffff" stroke="none" />
    <path d="M 373.5 377.5  C 379.66 377.5  384.5 382.34  384.5 388.5  C 384.5 394.66  379.66 399.5  373.5 399.5  C 367.34 399.5  362.5 394.66  362.5 388.5  C 362.5 382.34  367.34 377.5  373.5 377.5  Z " stroke-width="1" stroke="#797979" fill="none" />
  </g>
</svg>