<?xml version="1.0" encoding="utf-8"?>
<svg version="1.1" xmlns:xlink="http://www.w3.org/1999/xlink" width="12px" height="12px" viewBox="198 731.5  12 12" xmlns="http://www.w3.org/2000/svg">
  <path d="M 204 731.5  C 207.36 731.5  210 734.14  210 737.5  C 210 740.86  207.36 743.5  204 743.5  C 200.64 743.5  198 740.86  198 737.5  C 198 734.14  200.64 731.5  204 731.5  Z " fill-rule="nonzero" fill="#ffffff" stroke="none" />
  <path d="M 204 732  C 207.08 732  209.5 734.42  209.5 737.5  C 209.5 740.58  207.08 743  204 743  C 200.92 743  198.5 740.58  198.5 737.5  C 198.5 734.42  200.92 732  204 732  Z " stroke-width="1" stroke="#797979" fill="none" />
  <path d="M 204 740.5  C 202.32 740.5  201 739.18  201 737.5  C 201 735.82  202.32 734.5  204 734.5  C 205.68 734.5  207 735.82  207 737.5  C 207 739.18  205.68 740.5  204 740.5  " fill-rule="nonzero" fill="#797979" stroke="none" />
</svg>