<?xml version="1.0" encoding="utf-8"?>
<svg version="1.1" xmlns:xlink="http://www.w3.org/1999/xlink" width="27px" height="13px" xmlns="http://www.w3.org/2000/svg">
  <g transform="matrix(1 0 0 1 -456 -108 )">
    <path d="M 3 2.6  L 22.5 2.6  L 22.5 10.4  L 3 10.4  L 3 2.6  Z M 24 11.375  L 24 8.45  L 25.5 8.45  L 25.5 4.55  L 24 4.55  L 24 1.625  C 24 1.53020833333333  23.96484375 1.45234375  23.89453125 1.39140625  C 23.82421875 1.33046875  23.734375 1.3  23.625 1.3  L 1.875 1.3  C 1.765625 1.3  1.67578125 1.33046875  1.60546875 1.39140625  C 1.53515625 1.45234375  1.5 1.53020833333333  1.5 1.625  L 1.5 11.375  C 1.5 11.4697916666667  1.53515625 11.54765625  1.60546875 11.60859375  C 1.67578125 11.66953125  1.765625 11.7  1.875 11.7  L 23.625 11.7  C 23.734375 11.7  23.82421875 11.66953125  23.89453125 11.60859375  C 23.96484375 11.54765625  24 11.4697916666667  24 11.375  Z M 26.560546875 3.630859375  C 26.853515625 3.884765625  27 4.19114583333333  27 4.55  L 27 8.45  C 27 8.80885416666667  26.853515625 9.115234375  26.560546875 9.369140625  C 26.267578125 9.623046875  25.9140625 9.75  25.5 9.75  L 25.5 11.375  C 25.5 11.821875  25.31640625 12.2044270833333  24.94921875 12.52265625  C 24.58203125 12.8408854166667  24.140625 13  23.625 13  L 1.875 13  C 1.359375 13  0.91796875 12.8408854166667  0.55078125 12.52265625  C 0.18359375 12.2044270833333  0 11.821875  0 11.375  L 0 1.625  C 0 1.178125  0.18359375 0.795572916666666  0.55078125 0.47734375  C 0.91796875 0.159114583333332  1.359375 0  1.875 0  L 23.625 0  C 24.140625 0  24.58203125 0.159114583333332  24.94921875 0.47734375  C 25.31640625 0.795572916666666  25.5 1.178125  25.5 1.625  L 25.5 3.25  C 25.9140625 3.25  26.267578125 3.376953125  26.560546875 3.630859375  Z " fill-rule="nonzero" fill="#333333" stroke="none" transform="matrix(1 0 0 1 456 108 )" />
  </g>
</svg>