<?xml version="1.0" encoding="utf-8"?>
<svg version="1.1" xmlns:xlink="http://www.w3.org/1999/xlink" width="23px" height="17px" xmlns="http://www.w3.org/2000/svg">
  <g transform="matrix(1 0 0 1 -436 -94 )">
    <path d="M 3.17020089285714 14.2662760416667  C 3.24720982142857 14.3326822916667  3.28571428571429 14.4175347222222  3.28571428571429 14.5208333333333  L 3.28571428571429 16.6458333333333  C 3.28571428571429 16.7491319444444  3.24720982142857 16.833984375  3.17020089285714 16.900390625  C 3.09319196428571 16.966796875  2.99479166666667 17  2.875 17  L 0.410714285714286 17  C 0.290922619047619 17  0.192522321428571 16.966796875  0.115513392857143 16.900390625  C 0.0385044642857143 16.833984375  0 16.7491319444444  0 16.6458333333333  L 0 14.5208333333333  C 0 14.4175347222222  0.0385044642857143 14.3326822916667  0.115513392857143 14.2662760416667  C 0.192522321428571 14.1998697916667  0.290922619047619 14.1666666666667  0.410714285714286 14.1666666666667  L 2.875 14.1666666666667  C 2.99479166666667 14.1666666666667  3.09319196428571 14.1998697916667  3.17020089285714 14.2662760416667  Z M 8.09877232142857 12.849609375  C 8.17578125 12.916015625  8.21428571428572 13.0008680555556  8.21428571428572 13.1041666666667  L 8.21428571428572 16.6458333333333  C 8.21428571428572 16.7491319444444  8.17578125 16.833984375  8.09877232142857 16.900390625  C 8.02176339285714 16.966796875  7.92336309523809 17  7.80357142857143 17  L 5.33928571428571 17  C 5.21949404761905 17  5.12109375 16.966796875  5.04408482142857 16.900390625  C 4.96707589285714 16.833984375  4.92857142857143 16.7491319444444  4.92857142857143 16.6458333333333  L 4.92857142857143 13.1041666666667  C 4.92857142857143 13.0008680555556  4.96707589285714 12.916015625  5.04408482142857 12.849609375  C 5.12109375 12.783203125  5.21949404761905 12.75  5.33928571428571 12.75  L 7.80357142857143 12.75  C 7.92336309523809 12.75  8.02176339285714 12.783203125  8.09877232142857 12.849609375  Z M 13.02734375 10.0162760416667  C 13.1043526785714 10.0826822916667  13.1428571428571 10.1675347222222  13.1428571428571 10.2708333333333  L 13.1428571428571 16.6458333333333  C 13.1428571428571 16.7491319444444  13.1043526785714 16.833984375  13.02734375 16.900390625  C 12.9503348214286 16.966796875  12.8519345238095 17  12.7321428571429 17  L 10.2678571428571 17  C 10.1480654761905 17  10.0496651785714 16.966796875  9.97265625 16.900390625  C 9.89564732142857 16.833984375  9.85714285714286 16.7491319444444  9.85714285714286 16.6458333333333  L 9.85714285714286 10.2708333333333  C 9.85714285714286 10.1675347222222  9.89564732142857 10.0826822916667  9.97265625 10.0162760416667  C 10.0496651785714 9.94986979166667  10.1480654761905 9.91666666666667  10.2678571428571 9.91666666666667  L 12.7321428571429 9.91666666666667  C 12.8519345238095 9.91666666666667  12.9503348214286 9.94986979166667  13.02734375 10.0162760416667  Z M 17.9559151785714 5.76627604166667  C 18.0329241071429 5.83268229166667  18.0714285714286 5.91753472222222  18 6.02083333333333  L 18 16.6458333333333  C 18.0714285714286 16.7491319444444  18.0329241071429 16.833984375  17.9559151785714 16.900390625  C 17.87890625 16.966796875  17.780505952381 17  17.6607142857143 17  L 15.1964285714286 17  C 15.0766369047619 17  14.9782366071429 16.966796875  14.9012276785714 16.900390625  C 14.82421875 16.833984375  14.7857142857143 16.7491319444444  14.7857142857143 16.6458333333333  L 14.7857142857143 6.02083333333333  C 14.7857142857143 5.91753472222222  14.82421875 5.83268229166667  14.9012276785714 5.76627604166667  C 14.9782366071429 5.69986979166667  15.0766369047619 5.66666666666667  15.1964285714286 5.66666666666667  L 17.6607142857143 5.66666666666667  C 17.780505952381 5.66666666666667  17.87890625 5.69986979166667  17.9559151785714 5.76627604166667  Z M 22.8844866071429 0.099609375  C 22.9614955357143 0.166015625  23 0.250868055555553  23 0.354166666666667  L 23 16.6458333333333  C 23 16.7491319444444  22.9614955357143 16.833984375  22.8844866071429 16.900390625  C 22.8074776785714 16.966796875  22.7090773809524 17  22.5892857142857 17  L 20.125 17  C 20.0052083333333 17  19.9068080357143 16.966796875  19.8297991071429 16.900390625  C 19.7527901785714 16.833984375  19.7142857142857 16.7491319444444  19.7142857142857 16.6458333333333  L 19.7142857142857 0.354166666666667  C 19.7142857142857 0.250868055555553  19.7527901785714 0.166015625  19.8297991071429 0.099609375  C 19.9068080357143 0.033203125  20.0052083333333 0  20.125 0  L 22.5892857142857 0  C 22.7090773809524 0  22.8074776785714 0.033203125  22.8844866071429 0.099609375  Z " fill-rule="nonzero" fill="#333333" stroke="none" transform="matrix(1 0 0 1 436 94 )" />
  </g>
</svg>