<?xml version="1.0" encoding="utf-8"?>
<svg version="1.1" xmlns:xlink="http://www.w3.org/1999/xlink" width="26px" height="13px" xmlns="http://www.w3.org/2000/svg">
  <g transform="matrix(1 0 0 1 -469 -98 )">
    <path d="M 17.3333333333333 10.4  L 2.88888888888889 10.4  L 2.88888888888889 2.6  L 17.3333333333333 2.6  L 17.3333333333333 10.4  Z M 24.5555555555556 1.625  L 24.5555555555556 3.25  C 24.9542824074074 3.25  25.2947048611111 3.376953125  25.5768229166667 3.630859375  C 25.8589409722222 3.884765625  26 4.19114583333333  26 4.55  L 26 8.45  C 26 8.80885416666667  25.8589409722222 9.115234375  25.5768229166667 9.369140625  C 25.2947048611111 9.623046875  24.9542824074074 9.75  24.5555555555556 9.75  L 24.5555555555556 11.375  C 24.5555555555556 11.821875  24.3787615740741 12.2044270833333  24.0251736111111 12.52265625  C 23.6715856481482 12.8408854166667  23.2465277777778 13  22.75 13  L 1.80555555555556 13  C 1.30902777777778 13  0.883969907407407 12.8408854166667  0.530381944444444 12.52265625  C 0.176793981481481 12.2044270833333  0 11.821875  0 11.375  L 0 1.625  C 0 1.178125  0.176793981481481 0.795572916666666  0.530381944444444 0.47734375  C 0.883969907407407 0.159114583333332  1.30902777777778 0  1.80555555555556 0  L 22.75 0  C 23.2465277777778 0  23.6715856481482 0.159114583333332  24.0251736111111 0.47734375  C 24.3787615740741 0.795572916666666  24.5555555555556 1.178125  24.5555555555556 1.625  Z M 23.1111111111111 8.45  L 24.5555555555556 8.45  L 24.5555555555556 4.55  L 23.1111111111111 4.55  L 23.1111111111111 1.625  C 23.1111111111111 1.53020833333333  23.0772569444444 1.45234375  23.0095486111111 1.39140625  C 22.9418402777778 1.33046875  22.8553240740741 1.3  22.75 1.3  L 1.80555555555556 1.3  C 1.70023148148148 1.3  1.61371527777778 1.33046875  1.54600694444444 1.39140625  C 1.47829861111111 1.45234375  1.44444444444444 1.53020833333333  1.44444444444444 1.625  L 1.44444444444444 11.375  C 1.44444444444444 11.4697916666667  1.47829861111111 11.54765625  1.54600694444444 11.60859375  C 1.61371527777778 11.66953125  1.70023148148148 11.7  1.80555555555556 11.7  L 22.75 11.7  C 22.8553240740741 11.7  22.9418402777778 11.66953125  23.0095486111111 11.60859375  C 23.0772569444444 11.54765625  23.1111111111111 11.4697916666667  23.1111111111111 11.375  L 23.1111111111111 8.45  Z " fill-rule="nonzero" fill="#333333" stroke="none" transform="matrix(1 0 0 1 469 98 )" />
  </g>
</svg>