<?xml version="1.0" encoding="utf-8"?>
<svg version="1.1" xmlns:xlink="http://www.w3.org/1999/xlink" width="99px" height="99px" xmlns="http://www.w3.org/2000/svg">
  <defs>
    <mask fill="white" id="clip37">
      <path d="M 25 110  C 16.675 110  10 103.325  10 95  L 10 26  C 10 17.675  16.675 11  25 11  L 94 11  C 102.325 11  109 17.675  109 26  L 109 95  C 109 103.325  102.325 110  94 110  " fill-rule="evenodd" />
    </mask>
  </defs>
  <g transform="matrix(1 0 0 1 -10 -11 )">
    <path d="M 10 11  L 109 11  L 109 110  L 10 110  L 10 11  " fill-rule="nonzero" fill="#cccccc" stroke="none" mask="url(#clip37)" />
    <path d="M 17 18  L 102 18  L 102 103  L 17 103  L 17 18  " fill-rule="nonzero" fill="#ffffff" stroke="none" mask="url(#clip37)" />
    <path d="M 68.905 40.7  C 64.747 40.7  61.48 37.433  61.48 33.275  C 61.48 29.117  64.747 25.85  68.905 25.85  C 73.063 25.85  76.33 29.117  76.33 33.275  C 76.33 37.433  73.063 40.7  68.905 40.7  " fill-rule="nonzero" fill="#cccccc" stroke="none" mask="url(#clip37)" />
    <path d="M 20 101  L 20 57  L 40 37  L 68 53  L 84 49  L 100 53  L 100 101  L 20 101  " fill-rule="nonzero" fill="#169bd5" stroke="none" mask="url(#clip37)" />
  </g>
</svg>