<?xml version="1.0" encoding="utf-8"?>
<svg version="1.1" xmlns:xlink="http://www.w3.org/1999/xlink" width="27px" height="29px" xmlns="http://www.w3.org/2000/svg">
  <g transform="matrix(1 0 0 1 -307 -131 )">
    <path d="M 26.4038722826087 11.6241976893453  C 26.8012907608696 12.0895378690629  27 12.6510483525888  27 13.308729139923  L 27 15.691270860077  C 27 16.3489516474112  26.8012907608696 16.9104621309371  26.4038722826087 17.3758023106547  C 26.0064538043478 17.8411424903723  25.4898097826087 18.0738125802311  24.8539402173913 18  L 11.9408967391304 18  L 17.3152173913043 23.5462130937099  C 17.7798913043478 23.9929396662388  18.0122282608696 24.5513478818999  18.0122282608696 25.2214377406932  C 18.0122282608696 25.8915275994865  17.7798913043478 26.4499358151476  17.3152173913043 26.8966623876765  L 15.9395380434783 28.311296534018  C 15.4870923913043 28.770432178006  14.9368206521739 29  14.288722826087 29  C 13.6528532608696 29  13.0964673913043 28.770432178006  12.6195652173913 28.311296534018  L 0.67866847826087 16.1752246469833  C 0.226222826086957 15.7160890029953  0 15.1576807873342  0 14.5  C 0 13.8547282841249  0.226222826086957 13.2901155327343  0.67866847826087 12.806161745828  L 12.6195652173913 0.707317073170732  C 13.0842391304348 0.235772357723575  13.640625 0  14.288722826087 0  C 14.9245923913043 0  15.4748641304348 0.235772357723575  15.9395380434783 0.707317073170732  L 17.3152173913043 2.08472400513479  C 17.7798913043478 2.55626872058194  18.0122282608696 3.12088147197261  18.0122282608696 3.7785622593068  C 18.0122282608696 4.43624304664099  17.7798913043478 5.00085579803166  17.3152173913043 5.47240051347882  L 11.9408967391304 11  L 24.8539402173913 11  C 25.4898097826087 10.9261874197689  26.0064538043478 11.1588575096277  26.4038722826087 11.6241976893453  Z " fill-rule="nonzero" fill="#816be5" stroke="none" transform="matrix(1 0 0 1 307 131 )" />
  </g>
</svg>