<?xml version="1.0" encoding="utf-8"?>
<svg version="1.1" xmlns:xlink="http://www.w3.org/1999/xlink" width="62px" height="68px" xmlns="http://www.w3.org/2000/svg">
  <g transform="matrix(1 0 0 1 -184 -661 )">
    <path d="M 215 661  C 232.36 661  246 675.96  246 695  C 246 714.04  232.36 729  215 729  C 197.64 729  184 714.04  184 695  C 184 675.96  197.64 661  215 661  Z " fill-rule="nonzero" fill="#ffffff" stroke="none" />
    <path d="M 215 661.5  C 232.08 661.5  245.5 676.24  245.5 695  C 245.5 713.76  232.08 728.5  215 728.5  C 197.92 728.5  184.5 713.76  184.5 695  C 184.5 676.24  197.92 661.5  215 661.5  Z " stroke-width="1" stroke="#797979" fill="none" />
  </g>
</svg>