<?xml version="1.0" encoding="utf-8"?>
<svg version="1.1" xmlns:xlink="http://www.w3.org/1999/xlink" width="12px" height="12px" viewBox="238 538  12 12" xmlns="http://www.w3.org/2000/svg">
  <path d="M 244 538  C 247.36 538  250 540.64  250 544  C 250 547.36  247.36 550  244 550  C 240.64 550  238 547.36  238 544  C 238 540.64  240.64 538  244 538  Z " fill-rule="nonzero" fill="#f0f0f0" stroke="none" />
  <path d="M 244 538.5  C 247.08 538.5  249.5 540.92  249.5 544  C 249.5 547.08  247.08 549.5  244 549.5  C 240.92 549.5  238.5 547.08  238.5 544  C 238.5 540.92  240.92 538.5  244 538.5  Z " stroke-width="1" stroke="#797979" fill="none" />
  <path d="M 244 547  C 242.32 547  241 545.68  241 544  C 241 542.32  242.32 541  244 541  C 245.68 541  247 542.32  247 544  C 247 545.68  245.68 547  244 547  " fill-rule="nonzero" fill="#797979" stroke="none" />
</svg>