<?xml version="1.0" encoding="utf-8"?>
<svg version="1.1" xmlns:xlink="http://www.w3.org/1999/xlink" width="12px" height="12px" viewBox="370 538  12 12" xmlns="http://www.w3.org/2000/svg">
  <path d="M 376 538  C 379.36 538  382 540.64  382 544  C 382 547.36  379.36 550  376 550  C 372.64 550  370 547.36  370 544  C 370 540.64  372.64 538  376 538  Z " fill-rule="nonzero" fill="#ffffff" stroke="none" />
  <path d="M 376 538.5  C 379.08 538.5  381.5 540.92  381.5 544  C 381.5 547.08  379.08 549.5  376 549.5  C 372.92 549.5  370.5 547.08  370.5 544  C 370.5 540.92  372.92 538.5  376 538.5  Z " stroke-width="1" stroke="#797979" fill="none" />
  <path d="M 376 547  C 374.32 547  373 545.68  373 544  C 373 542.32  374.32 541  376 541  C 377.68 541  379 542.32  379 544  C 379 545.68  377.68 547  376 547  " fill-rule="nonzero" fill="#797979" stroke="none" />
</svg>