<?xml version="1.0" encoding="utf-8"?>
<svg version="1.1" xmlns:xlink="http://www.w3.org/1999/xlink" width="113px" height="113px" xmlns="http://www.w3.org/2000/svg">
  <defs>
    <filter x="272px" y="238px" width="113px" height="113px" filterUnits="userSpaceOnUse" id="filter2">
      <feOffset dx="1" dy="1" in="SourceAlpha" result="shadowOffsetInner" />
      <feGaussianBlur stdDeviation="2.5" in="shadowOffsetInner" result="shadowGaussian" />
      <feComposite in2="shadowGaussian" operator="atop" in="SourceAlpha" result="shadowComposite" />
      <feColorMatrix type="matrix" values="0 0 0 0 0  0 0 0 0 0  0 0 0 0 0  0 0 0 0.698039215686274 0  " in="shadowComposite" />
    </filter>
    <g id="widget3">
      <path d="M 327.5 242  C 356.34 242  379 264.66  379 293.5  C 379 322.34  356.34 345  327.5 345  C 298.66 345  276 322.34  276 293.5  C 276 264.66  298.66 242  327.5 242  Z " fill-rule="nonzero" fill="#6ee5ff" stroke="none" fill-opacity="0.996078431372549" />
      <path d="M 327.5 242.5  C 356.06 242.5  378.5 264.94  378.5 293.5  C 378.5 322.06  356.06 344.5  327.5 344.5  C 298.94 344.5  276.5 322.06  276.5 293.5  C 276.5 264.94  298.94 242.5  327.5 242.5  Z " stroke-width="1" stroke="#ffffff" fill="none" />
    </g>
  </defs>
  <g transform="matrix(1 0 0 1 -272 -238 )">
    <use xlink:href="#widget3" filter="url(#filter2)" />
    <use xlink:href="#widget3" />
  </g>
</svg>