<?xml version="1.0" encoding="utf-8"?>
<svg version="1.1" xmlns:xlink="http://www.w3.org/1999/xlink" width="71px" height="72px" xmlns="http://www.w3.org/2000/svg">
  <defs>
    <filter x="150px" y="446px" width="71px" height="72px" filterUnits="userSpaceOnUse" id="filter56">
      <feOffset dx="3" dy="4" in="SourceAlpha" result="shadowOffsetInner" />
      <feGaussianBlur stdDeviation="1.5" in="shadowOffsetInner" result="shadowGaussian" />
      <feComposite in2="shadowGaussian" operator="atop" in="SourceAlpha" result="shadowComposite" />
      <feColorMatrix type="matrix" values="0 0 0 0 0  0 0 0 0 0  0 0 0 0 0  0 0 0 0.349019607843137 0  " in="shadowComposite" />
    </filter>
    <g id="widget57">
      <path d="M 182.5 446  C 200.7 446  215 460.3  215 478.5  C 215 496.7  200.7 511  182.5 511  C 164.3 511  150 496.7  150 478.5  C 150 460.3  164.3 446  182.5 446  Z " fill-rule="nonzero" fill="#f2f2f2" stroke="none" />
      <path d="M 182.5 446.5  C 200.42 446.5  214.5 460.58  214.5 478.5  C 214.5 496.42  200.42 510.5  182.5 510.5  C 164.58 510.5  150.5 496.42  150.5 478.5  C 150.5 460.58  164.58 446.5  182.5 446.5  Z " stroke-width="1" stroke="#f2f2f2" fill="none" />
    </g>
  </defs>
  <g transform="matrix(1 0 0 1 -150 -446 )">
    <use xlink:href="#widget57" filter="url(#filter56)" />
    <use xlink:href="#widget57" />
  </g>
</svg>