<?xml version="1.0" encoding="utf-8"?>
<svg version="1.1" xmlns:xlink="http://www.w3.org/1999/xlink" width="30px" height="28px" xmlns="http://www.w3.org/2000/svg">
  <g transform="matrix(1 0 0 1 -375 -798 )">
    <path d="M 21.796875 24.5771896660365  L 20.4987980769231 17.1493383742911  L 26.015625 11.9092627599244  L 18.4074519230769 10.815374921235  L 15 4.07561436672968  L 11.5925480769231 10.815374921235  L 3.984375 11.9092627599244  L 9.50120192307692 17.1493383742911  L 8.18509615384615 24.5771896660365  L 15 21.0661625708885  L 21.796875 24.5771896660365  Z M 28.9903846153846 10.0390674228103  C 29.6634615384615 10.1449275362319  30 10.4154589371981  30 10.8506616257089  C 30 11.1094307918504  29.84375 11.3917244276412  29.53125 11.6975425330813  L 22.9867788461538 17.9432892249527  L 24.5372596153846 26.7649653434152  C 24.5492788461538 26.8473009871876  24.5552884615385 26.9649233354337  24.5552884615385 27.1178323881538  C 24.5552884615385 27.7059441293846  24.3088942307692 28  23.8161057692308 28  C 23.5877403846154 28  23.3473557692308 27.9294265910523  23.0949519230769 27.7882797731569  L 15 23.6244486452426  L 6.90504807692308 27.7882797731569  C 6.640625 27.9294265910523  6.40024038461538 28  6.18389423076923 28  C 5.93149038461538 28  5.7421875 27.9147237975215  5.61598557692308 27.7441713925646  C 5.48978365384615 27.5736189876076  5.42668269230769 27.3648393194707  5.42668269230769 27.1178323881538  C 5.42668269230769 27.047258979206  5.43870192307692 26.9296366309599  5.46274038461538 26.7649653434152  L 7.01322115384615 17.9432892249527  L 0.450721153846154 11.6975425330813  C 0.150240384615385 11.3799621928166  0 11.0976685570258  0 10.8506616257089  C 0 10.4154589371981  0.336538461538462 10.1449275362319  1.00961538461538 10.0390674228103  L 10.0600961538462 8.75110270951481  L 14.1165865384615 0.723377441713924  C 14.3449519230769 0.24112581390464  14.6394230769231 0  15 0  C 15.3605769230769 0  15.6550480769231 0.24112581390464  15.8834134615385 0.723377441713924  L 19.9399038461538 8.75110270951481  L 28.9903846153846 10.0390674228103  Z " fill-rule="nonzero" fill="#999999" stroke="none" transform="matrix(1 0 0 1 375 798 )" />
  </g>
</svg>