<?xml version="1.0" encoding="utf-8"?>
<svg version="1.1" xmlns:xlink="http://www.w3.org/1999/xlink" width="30px" height="28px" xmlns="http://www.w3.org/2000/svg">
  <g transform="matrix(1 0 0 1 -315 -798 )">
    <path d="M 24.5703125 21.2552083333333  C 24.8567708333333 20.6111111111111  25 19.9973958333333  25 19.4140625  C 25 19.2803819444444  24.9869791666667 19.1831597222222  24.9609375 19.1223958333333  C 24.921875 19.0251736111111  24.6712239583333 18.8459201388889  24.208984375 18.5846354166667  C 23.7467447916667 18.3233506944444  23.1705729166667 18.0225694444444  22.48046875 17.6822916666667  L 21.4453125 17.1536458333333  C 21.3802083333333 17.1171875  21.2565104166667 17.0381944444444  21.07421875 16.9166666666667  C 20.8919270833333 16.7951388888889  20.7291666666667 16.7039930555556  20.5859375 16.6432291666667  C 20.4427083333333 16.5824652777778  20.3059895833333 16.5520833333333  20.17578125 16.5520833333333  C 19.94140625 16.5520833333333  19.6354166666667 16.7495659722222  19.2578125 17.14453125  C 18.8802083333333 17.5394965277778  18.5091145833333 17.9375  18.14453125 18.3385416666667  C 17.7799479166667 18.7395833333333  17.4934895833333 18.9401041666667  17.28515625 18.9401041666667  C 17.1940104166667 18.9401041666667  17.0865885416667 18.9188368055556  16.962890625 18.8763020833333  C 16.8391927083333 18.8337673611111  16.73828125 18.7942708333333  16.66015625 18.7578125  C 16.58203125 18.7213541666667  16.4713541666667 18.6636284722222  16.328125 18.5846354166667  C 16.1848958333333 18.5056423611111  16.09375 18.4539930555556  16.0546875 18.4296875  C 14.765625 17.7612847222222  13.6555989583333 16.9926215277778  12.724609375 16.1236979166667  C 11.7936197916667 15.2547743055556  10.9700520833333 14.21875  10.25390625 13.015625  C 10.2278645833333 12.9791666666667  10.1725260416667 12.8940972222222  10.087890625 12.7604166666667  C 10.0032552083333 12.6267361111111  9.94140625 12.5234375  9.90234375 12.4505208333333  C 9.86328125 12.3776041666667  9.82096354166667 12.2834201388889  9.775390625 12.16796875  C 9.72981770833333 12.0525173611111  9.70703125 11.9522569444444  9.70703125 11.8671875  C 9.70703125 11.7092013888889  9.84049479166667 11.5056423611111  10.107421875 11.2565104166667  C 10.3743489583333 11.0073784722222  10.6673177083333 10.7734375  10.986328125 10.5546875  C 11.3053385416667 10.3359375  11.5983072916667 10.0959201388889  11.865234375 9.83463541666667  C 12.1321614583333 9.57335069444444  12.265625 9.3515625  12.265625 9.16927083333333  C 12.265625 9.04774305555555  12.2330729166667 8.92013888888889  12.16796875 8.78645833333333  C 12.1028645833333 8.65277777777778  12.0052083333333 8.50086805555555  11.875 8.33072916666667  C 11.7447916666667 8.16059027777778  11.66015625 8.04513888888889  11.62109375 7.984375  C 11.58203125 7.91145833333333  11.484375 7.73828125  11.328125 7.46484375  C 11.171875 7.19140625  11.0091145833333 6.91493055555555  10.83984375 6.63541666666667  C 10.6705729166667 6.35590277777778  10.498046875 6.06727430555555  10.322265625 5.76953125  C 10.146484375 5.47178819444444  9.98372395833333 5.22569444444444  9.833984375 5.03125  C 9.68424479166667 4.83680555555555  9.57682291666667 4.72743055555555  9.51171875 4.703125  C 9.44661458333333 4.67881944444444  9.34244791666667 4.66666666666667  9.19921875 4.66666666666667  C 8.57421875 4.66666666666667  7.91666666666667 4.80034722222222  7.2265625 5.06770833333333  C 6.62760416666667 5.32291666666667  6.10677083333333 5.89713541666667  5.6640625 6.79036458333333  C 5.22135416666667 7.68359375  5 8.4765625  5 9.16927083333333  C 5 9.36371527777778  5.01627604166667 9.5703125  5.048828125 9.7890625  C 5.08138020833333 10.0078125  5.11393229166667 10.1931423611111  5.146484375 10.3450520833333  C 5.17903645833333 10.4969618055556  5.23763020833333 10.6974826388889  5.322265625 10.9466145833333  C 5.40690104166667 11.1957465277778  5.47200520833333 11.375  5.517578125 11.484375  C 5.56315104166667 11.59375  5.64453125 11.7942708333333  5.76171875 12.0859375  C 5.87890625 12.3776041666667  5.95052083333333 12.5598958333333  5.9765625 12.6328125  C 6.7578125 14.6258680555556  8.16731770833333 16.5733506944444  10.205078125 18.4752604166667  C 12.2428385416667 20.3771701388889  14.3294270833333 21.6927083333333  16.46484375 22.421875  C 16.54296875 22.4461805555556  16.73828125 22.5130208333333  17.05078125 22.6223958333333  C 17.36328125 22.7317708333333  17.578125 22.8077256944444  17.6953125 22.8502604166667  C 17.8125 22.8927951388889  18.0045572916667 22.9535590277778  18.271484375 23.0325520833333  C 18.5384114583333 23.1115451388889  18.7532552083333 23.1662326388889  18.916015625 23.1966145833333  C 19.0787760416667 23.2269965277778  19.27734375 23.2573784722222  19.51171875 23.2877604166667  C 19.74609375 23.3181423611111  19.9674479166667 23.3333333333333  20.17578125 23.3333333333333  C 20.91796875 23.3333333333333  21.767578125 23.1267361111111  22.724609375 22.7135416666667  C 23.681640625 22.3003472222222  24.296875 21.8142361111111  24.5703125 21.2552083333333  Z M 28.349609375 1.54036458333333  C 29.4498697916667 2.56727430555555  30 3.80381944444444  30 5.25  L 30 22.75  C 30 24.1961805555556  29.4498697916667 25.4327256944444  28.349609375 26.4596354166667  C 27.2493489583333 27.4865451388889  25.9244791666667 28  24.375 28  L 5.625 28  C 4.07552083333333 28  2.75065104166667 27.4865451388889  1.650390625 26.4596354166667  C 0.550130208333333 25.4327256944444  0 24.1961805555556  0 22.75  L 0 5.25  C 0 3.80381944444444  0.550130208333333 2.56727430555555  1.650390625 1.54036458333333  C 2.75065104166667 0.513454861111109  4.07552083333333 0  5.625 0  L 24.375 0  C 25.9244791666667 0  27.2493489583333 0.513454861111109  28.349609375 1.54036458333333  Z " fill-rule="nonzero" fill="#999999" stroke="none" transform="matrix(1 0 0 1 315 798 )" />
  </g>
</svg>