<?xml version="1.0" encoding="utf-8"?>
<svg version="1.1" xmlns:xlink="http://www.w3.org/1999/xlink" width="60px" height="34px" xmlns="http://www.w3.org/2000/svg">
  <defs>
    <mask fill="white" id="clip49">
      <path d="M 17 34  C 7.48000000000002 34  0 26.52  0 17  C 0 7.48000000000002  7.48000000000002 0  17 0  L 30.797101449274 0  L 43 0  C 52.52 0  60 7.48000000000002  60 17  C 60 26.52  52.52 34  43 34  L 17 34  Z " fill-rule="evenodd" />
    </mask>
  </defs>
  <g transform="matrix(1 0 0 1 -575 -781 )">
    <path d="M 17 34  C 7.48000000000002 34  0 26.52  0 17  C 0 7.48000000000002  7.48000000000002 0  17 0  L 30.797101449274 0  L 43 0  C 52.52 0  60 7.48000000000002  60 17  C 60 26.52  52.52 34  43 34  L 17 34  Z " fill-rule="nonzero" fill="#ffffff" stroke="none" transform="matrix(1 0 0 1 575 781 )" />
    <path d="M 17 34  C 7.48000000000002 34  0 26.52  0 17  C 0 7.48000000000002  7.48000000000002 0  17 0  L 30.797101449274 0  L 43 0  C 52.52 0  60 7.48000000000002  60 17  C 60 26.52  52.52 34  43 34  L 17 34  Z " stroke-width="2" stroke="#797979" fill="none" transform="matrix(1 0 0 1 575 781 )" mask="url(#clip49)" />
  </g>
</svg>