<?xml version="1.0" encoding="utf-8"?>
<svg version="1.1" xmlns:xlink="http://www.w3.org/1999/xlink" width="24px" height="18px" xmlns="http://www.w3.org/2000/svg">
  <g transform="matrix(1 0 0 1 -105 -179 )">
    <path d="M 23.4701086956522 7.21501925545571  C 23.8233695652174 7.50385109114249  24 7.85237483953787  24 8.26059050064185  L 24 9.73940949935815  C 24 10.1476251604621  23.8233695652174 10.4961489088575  23.4701086956522 10.7849807445443  C 23.116847826087 11.0738125802311  22.6576086956522 11.2182284980745  22.0923913043478 11  L 10.6141304347826 11  L 15.3913043478261 14.614890885751  C 15.804347826087 14.8921694480103  16.0108695652174 15.2387676508344  16.0108695652174 15.6546854942234  C 16.0108695652174 16.0706033376123  15.804347826087 16.4172015404365  15.3913043478261 16.6944801026958  L 14.1684782608696 17.5725288831836  C 13.7663043478261 17.8575096277279  13.2771739130435 18  12.7010869565217 18  C 12.1358695652174 18  11.6413043478261 17.8575096277279  11.2173913043478 17.5725288831836  L 0.603260869565217 10.0397946084724  C 0.201086956521739 9.75481386392811  0 9.40821566110398  0 9  C 0 8.599486521181  0.201086956521739 8.24903722721438  0.603260869565217 7.94865211810013  L 11.2173913043478 0.439024390243903  C 11.6304347826087 0.146341463414633  12.125 0  12.7010869565217 0  C 13.2663043478261 0  13.7554347826087 0.146341463414633  14.1684782608696 0.439024390243903  L 15.3913043478261 1.29396662387676  C 15.804347826087 1.58664955070603  16.0108695652174 1.93709884467265  16.0108695652174 2.34531450577664  C 16.0108695652174 2.75353016688061  15.804347826087 3.10397946084724  15.3913043478261 3.39666238767651  L 10.6141304347826 7  L 22.0923913043478 7  C 22.6576086956522 6.78177150192555  23.116847826087 6.92618741976893  23.4701086956522 7.21501925545571  Z " fill-rule="nonzero" fill="#333333" stroke="none" transform="matrix(1 0 0 1 105 179 )" />
  </g>
</svg>