<?xml version="1.0" encoding="utf-8"?>
<svg version="1.1" xmlns:xlink="http://www.w3.org/1999/xlink" width="45px" height="49px" xmlns="http://www.w3.org/2000/svg">
  <g transform="matrix(1 0 0 1 -143 -233 )">
    <path d="M 165.5 233  C 178.1 233  188 243.78  188 257.5  C 188 271.22  178.1 282  165.5 282  C 152.9 282  143 271.22  143 257.5  C 143 243.78  152.9 233  165.5 233  Z " fill-rule="nonzero" fill="#ffffff" stroke="none" />
    <path d="M 165.5 233.5  C 177.82 233.5  187.5 244.06  187.5 257.5  C 187.5 270.94  177.82 281.5  165.5 281.5  C 153.18 281.5  143.5 270.94  143.5 257.5  C 143.5 244.06  153.18 233.5  165.5 233.5  Z " stroke-width="1" stroke="#797979" fill="none" />
  </g>
</svg>