<?xml version="1.0" encoding="utf-8"?>
<svg version="1.1" xmlns:xlink="http://www.w3.org/1999/xlink" width="41px" height="33px" xmlns="http://www.w3.org/2000/svg">
  <g transform="matrix(1 0 0 1 -370 -338 )">
    <path d="M 40.2593548387097 4.55555555555556  C 40.7531182795699 5.07407407407407  41 5.7037037037037  41 6.44444444444444  C 41 7.18518518518518  40.7531182795699 7.81481481481481  40.2593548387097 8.33333333333333  L 21.1083870967742 28.4444444444444  L 17.5109677419355 32.2222222222222  C 17.0172043010753 32.7407407407407  16.4176344086022 33  15.7122580645161 33  C 15.0068817204301 33  14.407311827957 32.7407407407407  13.9135483870968 32.2222222222222  L 10.3161290322581 28.4444444444444  L 0.740645161290323 18.3888888888889  C 0.246881720430108 17.8703703703704  0 17.2407407407407  0 16.5  C 0 15.7592592592593  0.246881720430108 15.1296296296296  0.740645161290323 14.6111111111111  L 4.33806451612903 10.8333333333333  C 4.83182795698925 10.3148148148148  5.43139784946237 10.0555555555556  6.13677419354839 10.0555555555556  C 6.84215053763441 10.0555555555556  7.44172043010753 10.3148148148148  7.93548387096774 10.8333333333333  L 15.7122580645161 19.0277777777778  L 33.0645161290323 0.777777777777778  C 33.5582795698925 0.259259259259258  34.1578494623656 0  34.8632258064516 0  C 35.5686021505376 0  36.1681720430108 0.259259259259258  36.661935483871 0.777777777777778  L 40.2593548387097 4.55555555555556  Z " fill-rule="nonzero" fill="#333333" stroke="none" transform="matrix(1 0 0 1 370 338 )" />
  </g>
</svg>