<?xml version="1.0" encoding="utf-8"?>
<svg version="1.1" xmlns:xlink="http://www.w3.org/1999/xlink" width="15px" height="15px" xmlns="http://www.w3.org/2000/svg">
  <g transform="matrix(1 0 0 1 -760 -300 )">
    <path d="M 767.5 300  C 771.7 300  775 303.3  775 307.5  C 775 311.7  771.7 315  767.5 315  C 763.3 315  760 311.7  760 307.5  C 760 303.3  763.3 300  767.5 300  Z " fill-rule="nonzero" fill="#ffffff" stroke="none" />
    <path d="M 767.5 300.5  C 771.42 300.5  774.5 303.58  774.5 307.5  C 774.5 311.42  771.42 314.5  767.5 314.5  C 763.58 314.5  760.5 311.42  760.5 307.5  C 760.5 303.58  763.58 300.5  767.5 300.5  Z " stroke-width="1" stroke="#797979" fill="none" />
  </g>
</svg>