<?xml version="1.0" encoding="utf-8"?>
<svg version="1.1" xmlns:xlink="http://www.w3.org/1999/xlink" width="9px" height="9px" xmlns="http://www.w3.org/2000/svg">
  <g transform="matrix(1 0 0 1 -763 -303 )">
    <path d="M 767.5 303  C 770.02 303  772 304.98  772 307.5  C 772 310.02  770.02 312  767.5 312  C 764.98 312  763 310.02  763 307.5  C 763 304.98  764.98 303  767.5 303  Z " fill-rule="nonzero" fill="#ffffff" stroke="none" />
    <path d="M 767.5 303.5  C 769.74 303.5  771.5 305.26  771.5 307.5  C 771.5 309.74  769.74 311.5  767.5 311.5  C 765.26 311.5  763.5 309.74  763.5 307.5  C 763.5 305.26  765.26 303.5  767.5 303.5  Z " stroke-width="1" stroke="#797979" fill="none" />
  </g>
</svg>