<?xml version="1.0" encoding="utf-8"?>
<svg version="1.1" xmlns:xlink="http://www.w3.org/1999/xlink" width="32px" height="13px" xmlns="http://www.w3.org/2000/svg">
  <g transform="matrix(1 0 0 1 -844 -311 )">
    <path d="M 3.55555555555556 2.6  L 26.6666666666667 2.6  L 26.6666666666667 10.4  L 3.55555555555556 10.4  L 3.55555555555556 2.6  Z M 28.4444444444444 11.375  L 28.4444444444444 8.45  L 30.2222222222222 8.45  L 30.2222222222222 4.55  L 28.4444444444444 4.55  L 28.4444444444444 1.625  C 28.4444444444444 1.53020833333333  28.4027777777778 1.45234375  28.3194444444444 1.39140625  C 28.2361111111111 1.33046875  28.1296296296296 1.3  28 1.3  L 2.22222222222222 1.3  C 2.09259259259259 1.3  1.98611111111111 1.33046875  1.90277777777778 1.39140625  C 1.81944444444444 1.45234375  1.77777777777778 1.53020833333333  1.77777777777778 1.625  L 1.77777777777778 11.375  C 1.77777777777778 11.4697916666667  1.81944444444444 11.54765625  1.90277777777778 11.60859375  C 1.98611111111111 11.66953125  2.09259259259259 11.7  2.22222222222222 11.7  L 28 11.7  C 28.1296296296296 11.7  28.2361111111111 11.66953125  28.3194444444444 11.60859375  C 28.4027777777778 11.54765625  28.4444444444444 11.4697916666667  28.4444444444444 11.375  Z M 31.4791666666667 3.630859375  C 31.8263888888889 3.884765625  32 4.19114583333333  32 4.55  L 32 8.45  C 32 8.80885416666667  31.8263888888889 9.115234375  31.4791666666667 9.369140625  C 31.1319444444444 9.623046875  30.712962962963 9.75  30.2222222222222 9.75  L 30.2222222222222 11.375  C 30.2222222222222 11.821875  30.0046296296296 12.2044270833333  29.5694444444444 12.52265625  C 29.1342592592593 12.8408854166667  28.6111111111111 13  28 13  L 2.22222222222222 13  C 1.61111111111111 13  1.08796296296296 12.8408854166667  0.652777777777778 12.52265625  C 0.217592592592593 12.2044270833333  0 11.821875  0 11.375  L 0 1.625  C 0 1.178125  0.217592592592593 0.795572916666666  0.652777777777778 0.47734375  C 1.08796296296296 0.159114583333332  1.61111111111111 0  2.22222222222222 0  L 28 0  C 28.6111111111111 0  29.1342592592593 0.159114583333332  29.5694444444444 0.47734375  C 30.0046296296296 0.795572916666666  30.2222222222222 1.178125  30.2222222222222 1.625  L 30.2222222222222 3.25  C 30.712962962963 3.25  31.1319444444444 3.376953125  31.4791666666667 3.630859375  Z " fill-rule="nonzero" fill="#333333" stroke="none" transform="matrix(1 0 0 1 844 311 )" />
  </g>
</svg>