<?xml version="1.0" encoding="utf-8"?>
<svg version="1.1" xmlns:xlink="http://www.w3.org/1999/xlink" width="75px" height="75px" xmlns="http://www.w3.org/2000/svg">
  <g transform="matrix(1 0 0 1 -324 -263 )">
    <path d="M 361.5 266  C 380.82 266  396 281.18  396 300.5  C 396 319.82  380.82 335  361.5 335  C 342.18 335  327 319.82  327 300.5  C 327 281.18  342.18 266  361.5 266  Z " fill-rule="nonzero" fill="#ffffff" stroke="none" />
    <path d="M 361.5 265  C 381.38 265  397 280.62  397 300.5  C 397 320.38  381.38 336  361.5 336  C 341.62 336  326 320.38  326 300.5  C 326 280.62  341.62 265  361.5 265  Z " stroke-width="4" stroke="#7774e7" fill="none" />
  </g>
</svg>