<?xml version="1.0" encoding="utf-8"?>
<svg version="1.1" xmlns:xlink="http://www.w3.org/1999/xlink" width="12px" height="12px" viewBox="248 573  12 12" xmlns="http://www.w3.org/2000/svg">
  <path d="M 254 573  C 257.36 573  260 575.64  260 579  C 260 582.36  257.36 585  254 585  C 250.64 585  248 582.36  248 579  C 248 575.64  250.64 573  254 573  Z " fill-rule="nonzero" fill="#f0f0f0" stroke="none" />
  <path d="M 254 573.5  C 257.08 573.5  259.5 575.92  259.5 579  C 259.5 582.08  257.08 584.5  254 584.5  C 250.92 584.5  248.5 582.08  248.5 579  C 248.5 575.92  250.92 573.5  254 573.5  Z " stroke-width="1" stroke="#797979" fill="none" />
  <path d="M 254 582  C 252.32 582  251 580.68  251 579  C 251 577.32  252.32 576  254 576  C 255.68 576  257 577.32  257 579  C 257 580.68  255.68 582  254 582  " fill-rule="nonzero" fill="#797979" stroke="none" />
</svg>