<?xml version="1.0" encoding="utf-8"?>
<svg version="1.1" xmlns:xlink="http://www.w3.org/1999/xlink" width="12px" height="12px" viewBox="248 412  12 12" xmlns="http://www.w3.org/2000/svg">
  <path d="M 254 412  C 257.36 412  260 414.64  260 418  C 260 421.36  257.36 424  254 424  C 250.64 424  248 421.36  248 418  C 248 414.64  250.64 412  254 412  Z " fill-rule="nonzero" fill="#ffffff" stroke="none" />
  <path d="M 254 412.5  C 257.08 412.5  259.5 414.92  259.5 418  C 259.5 421.08  257.08 423.5  254 423.5  C 250.92 423.5  248.5 421.08  248.5 418  C 248.5 414.92  250.92 412.5  254 412.5  Z " stroke-width="1" stroke="#797979" fill="none" />
  <path d="M 254 421  C 252.32 421  251 419.68  251 418  C 251 416.32  252.32 415  254 415  C 255.68 415  257 416.32  257 418  C 257 419.68  255.68 421  254 421  " fill-rule="nonzero" fill="#797979" stroke="none" />
</svg>