<?xml version="1.0" encoding="utf-8"?>
<svg version="1.1" xmlns:xlink="http://www.w3.org/1999/xlink" width="12px" height="12px" viewBox="248 735  12 12" xmlns="http://www.w3.org/2000/svg">
  <path d="M 254 735  C 257.36 735  260 737.64  260 741  C 260 744.36  257.36 747  254 747  C 250.64 747  248 744.36  248 741  C 248 737.64  250.64 735  254 735  Z " fill-rule="nonzero" fill="#ffffff" stroke="none" />
  <path d="M 254 735.5  C 257.08 735.5  259.5 737.92  259.5 741  C 259.5 744.08  257.08 746.5  254 746.5  C 250.92 746.5  248.5 744.08  248.5 741  C 248.5 737.92  250.92 735.5  254 735.5  Z " stroke-width="1" stroke="#797979" fill="none" />
  <path d="M 254 744  C 252.32 744  251 742.68  251 741  C 251 739.32  252.32 738  254 738  C 255.68 738  257 739.32  257 741  C 257 742.68  255.68 744  254 744  " fill-rule="nonzero" fill="#797979" stroke="none" />
</svg>