<?xml version="1.0" encoding="utf-8"?>
<svg version="1.1" xmlns:xlink="http://www.w3.org/1999/xlink" width="12px" height="12px" viewBox="266 843  12 12" xmlns="http://www.w3.org/2000/svg">
  <path d="M 272 843  C 275.36 843  278 845.64  278 849  C 278 852.36  275.36 855  272 855  C 268.64 855  266 852.36  266 849  C 266 845.64  268.64 843  272 843  Z " fill-rule="nonzero" fill="#ffffff" stroke="none" />
  <path d="M 272 843.5  C 275.08 843.5  277.5 845.92  277.5 849  C 277.5 852.08  275.08 854.5  272 854.5  C 268.92 854.5  266.5 852.08  266.5 849  C 266.5 845.92  268.92 843.5  272 843.5  Z " stroke-width="1" stroke="#797979" fill="none" />
  <path d="M 272 852  C 270.32 852  269 850.68  269 849  C 269 847.32  270.32 846  272 846  C 273.68 846  275 847.32  275 849  C 275 850.68  273.68 852  272 852  " fill-rule="nonzero" fill="#797979" stroke="none" />
</svg>